<svg width="75" height="49" viewBox="0 0 75 49" fill="none" xmlns="http://www.w3.org/2000/svg">
<path d="M38.6295 7.69099L47.5662 16.1809C48.1624 16.7472 48.5 17.5335 48.5 18.3559V26.9972C48.5 28.3779 47.3807 29.4972 46 29.4972H40C39.4477 29.4972 39 29.0495 39 28.4972V22.9971C39 22.1687 38.3284 21.4971 37.5 21.4971C36.6716 21.4971 36 22.1687 36 22.9971V28.4972C36 29.0495 35.5523 29.4972 35 29.4972H29C27.6193 29.4972 26.5 28.3779 26.5 26.9972V18.3559C26.5 17.5335 26.8376 16.7472 27.4338 16.1809L36.3705 7.69099C37.0034 7.08966 37.9966 7.08966 38.6295 7.69099ZM37.5 9.37654L28.8113 17.6309C28.6125 17.8196 28.5 18.0817 28.5 18.3559V26.9972C28.5 27.2734 28.7239 27.4972 29 27.4972H34V22.9971C34 21.0641 35.567 19.4971 37.5 19.4971C39.433 19.4971 41 21.0641 41 22.9971V27.4972H46C46.2761 27.4972 46.5 27.2734 46.5 26.9972V18.3559C46.5 18.0817 46.3875 17.8196 46.1887 17.6309L37.5 9.37654Z" fill="#2975CC"/>
</svg>
